<svg width="18" height="17" viewBox="0 0 18 17" fill="none" xmlns="http://www.w3.org/2000/svg">
<path fill-rule="evenodd" clip-rule="evenodd" d="M9 2.125C6.58375 2.125 4.625 4.08375 4.625 6.5C4.625 8.91625 6.58375 10.875 9 10.875C11.4162 10.875 13.375 8.91625 13.375 6.5C13.375 4.08375 11.4162 2.125 9 2.125ZM3.375 6.5C3.375 3.3934 5.8934 0.875 9 0.875C12.1066 0.875 14.625 3.3934 14.625 6.5C14.625 9.6066 12.1066 12.125 9 12.125C5.8934 12.125 3.375 9.6066 3.375 6.5Z" fill="#9CADF2"/>
<path fill-rule="evenodd" clip-rule="evenodd" d="M9.00001 12.1244C7.57365 12.1244 6.17242 12.4999 4.93719 13.2131C3.70196 13.9264 2.67625 14.9522 1.96318 16.1875C1.79062 16.4865 1.40839 16.5889 1.10944 16.4164C0.810489 16.2438 0.708032 15.8616 0.880593 15.5626C1.70336 14.1373 2.88687 12.9536 4.31214 12.1306C5.73741 11.3077 7.35421 10.8744 9.00001 10.8744C10.6458 10.8744 12.2626 11.3077 13.6879 12.1306C15.1132 12.9536 16.2967 14.1373 17.1194 15.5626C17.292 15.8616 17.1895 16.2438 16.8906 16.4164C16.5916 16.5889 16.2094 16.4865 16.0368 16.1875C15.3238 14.9522 14.2981 13.9264 13.0628 13.2131C11.8276 12.4999 10.4264 12.1244 9.00001 12.1244Z" fill="#9CADF2"/>
</svg>
